<mxfile host="app.diagrams.net" agent="Mozilla/5.0 (Windows NT 10.0; Win64; x64) AppleWebKit/537.36 (KHTML, like Gecko) Chrome/131.0.0.0 Safari/537.36" version="26.0.4">
  <diagram name="第 1 页" id="xRrCS5QztE6Z08vACNaN">
    <mxGraphModel dx="1058" dy="658" grid="0" gridSize="10" guides="0" tooltips="1" connect="0" arrows="0" fold="1" page="1" pageScale="1" pageWidth="3300" pageHeight="2339" background="none" math="0" shadow="0">
      <root>
        <mxCell id="0" />
        <mxCell id="1" parent="0" />
        <mxCell id="eiGT6yipun40KPxp0-vt-19" value="rtm终端核心流程" style="swimlane;childLayout=stackLayout;resizeParent=1;resizeParentMax=0;startSize=20;html=1;" vertex="1" parent="1">
          <mxGeometry x="1605" y="521" width="600" height="485" as="geometry" />
        </mxCell>
        <mxCell id="eiGT6yipun40KPxp0-vt-20" value="部门负责人" style="swimlane;startSize=20;html=1;" vertex="1" parent="eiGT6yipun40KPxp0-vt-19">
          <mxGeometry y="20" width="300" height="465" as="geometry" />
        </mxCell>
        <mxCell id="eiGT6yipun40KPxp0-vt-1" value="下发终端" style="rounded=1;whiteSpace=wrap;html=1;points=[[0,0,0,0,0],[0,0.25,0,0,0],[0,0.5,0,0,0],[0,0.75,0,0,0],[0,1,0,0,0],[0.25,0,0,0,0],[0.25,1,0,0,0],[0.5,0,0,0,0],[0.5,1,0,0,0],[0.75,0,0,0,0],[0.75,1,0,0,0],[1,0,0,0,0],[1,0.25,0,0,0],[1,0.5,0,0,0],[1,0.75,0,0,0],[1,1,0,0,0]];" vertex="1" parent="eiGT6yipun40KPxp0-vt-20">
          <mxGeometry x="77.99999999999955" y="80" width="120" height="60" as="geometry" />
        </mxCell>
        <mxCell id="eiGT6yipun40KPxp0-vt-3" value="终端查验" style="rounded=1;whiteSpace=wrap;html=1;" vertex="1" parent="eiGT6yipun40KPxp0-vt-20">
          <mxGeometry x="76" y="208" width="120" height="60" as="geometry" />
        </mxCell>
        <mxCell id="eiGT6yipun40KPxp0-vt-21" value="一线人员" style="swimlane;startSize=20;html=1;" vertex="1" parent="eiGT6yipun40KPxp0-vt-19">
          <mxGeometry x="300" y="20" width="300" height="465" as="geometry">
            <mxRectangle x="120" y="20" width="32" height="460" as="alternateBounds" />
          </mxGeometry>
        </mxCell>
        <mxCell id="eiGT6yipun40KPxp0-vt-2" value="终端查验" style="rounded=1;whiteSpace=wrap;html=1;" vertex="1" parent="eiGT6yipun40KPxp0-vt-21">
          <mxGeometry x="57" y="208" width="120" height="60" as="geometry" />
        </mxCell>
        <mxCell id="eiGT6yipun40KPxp0-vt-14" value="" style="edgeStyle=orthogonalEdgeStyle;rounded=0;orthogonalLoop=1;jettySize=auto;html=1;" edge="1" parent="eiGT6yipun40KPxp0-vt-19" source="eiGT6yipun40KPxp0-vt-1" target="eiGT6yipun40KPxp0-vt-2">
          <mxGeometry relative="1" as="geometry" />
        </mxCell>
        <mxCell id="eiGT6yipun40KPxp0-vt-16" value="" style="edgeStyle=orthogonalEdgeStyle;rounded=0;orthogonalLoop=1;jettySize=auto;html=1;" edge="1" parent="eiGT6yipun40KPxp0-vt-19" source="eiGT6yipun40KPxp0-vt-2" target="eiGT6yipun40KPxp0-vt-3">
          <mxGeometry relative="1" as="geometry" />
        </mxCell>
      </root>
    </mxGraphModel>
  </diagram>
</mxfile>
